<svg xmlns="http://www.w3.org/2000/svg" stroke-linecap="round" stroke-linejoin="round" stroke-miterlimit="10" clip-rule="evenodd" version="1.1" viewBox="0 0 1920 820" xml:space="preserve"><defs><linearGradient id="c" x1="182.05" x2="481.34" y1="1005.4" y2="1005.4" gradientTransform="translate(893.26 -353.69)" gradientUnits="userSpaceOnUse"><stop offset=".008" stop-color="#a4a4a4"/><stop offset=".171" stop-color="#dfdfdf"/><stop offset=".989" stop-color="#8e8e8e"/></linearGradient><linearGradient id="b" x1="182.05" x2="481.34" y1="1005.4" y2="1005.4" gradientTransform="translate(363.32 -357.23)" gradientUnits="userSpaceOnUse"><stop offset=".008" stop-color="#a4a4a4"/><stop offset=".171" stop-color="#dfdfdf"/><stop offset=".989" stop-color="#8e8e8e"/></linearGradient><linearGradient id="a" x1="182.05" x2="481.34" y1="1005.4" y2="1005.4" gradientTransform="translate(559.65 -787.9)" gradientUnits="userSpaceOnUse"><stop offset=".008" stop-color="#a4a4a4"/><stop offset=".171" stop-color="#dfdfdf"/><stop offset=".989" stop-color="#8e8e8e"/></linearGradient></defs><g><path fill="#ff6868" d="m668.36 348.22c44.621-37.184-62.518-115.98 38.263-170.31 100.78-54.326 309.96-42.629 364.86-47 183.08-14.573 129.45 159.12 202.92 282.1 73.48 122.98 126.58 166.65 90.98 209.84-70.04 84.98-287.25 14.277-372.15-0.88-81.159-14.489-136.84 74.892-225.97 67.53-105.15-8.685-195.43-216.73-220.15-302.05-24.725-85.322 76.631-2.048 121.25-39.233z"/><g><g><path fill="url(#c)" d="m1075.3 576.6v100.63h0.03c0.13 17.103 26.93 33.738 74.81 42.906 71.56 13.701 163.06 5.544 204.38-18.188 13.59-7.806 20.05-16.308 20.06-24.718v-100.38c-0.04 8.39-6.51 16.87-20.06 24.657-41.32 23.732-132.82 31.858-204.38 18.156-48.05-9.2-74.87-25.895-74.81-43.063h-0.03z"/><path fill="#f7f7f7" stroke="#000" stroke-linecap="butt" stroke-linejoin="miter" d="m1354.5 601.87c-41.3 23.743-132.82 31.882-204.4 18.177-71.57-13.705-96.08-44.062-54.73-67.794 41.3-23.743 132.82-31.882 204.4-18.177 71.57 13.705 96.08 44.061 54.73 67.794z"/><path fill="#2e2e2e" fill-rule="evenodd" d="m1304.9 573.19-18.78 10.79 66.58 12.749-12.52 7.193-66.58-12.748-18.79 10.79-12.48-21.573 62.57-7.201z"/><path fill="#2e2e2e" fill-rule="evenodd" d="m1195.1 552.17-18.79 10.79-66.58-12.748-12.52 7.193 66.58 12.749-18.78 10.79 62.57-7.201-12.48-21.573z"/><path fill="#2e2e2e" fill-rule="evenodd" d="m1211.2 611.54-26.03-4.984 38.44-22.081-17.35-3.322-38.44 22.081-26.03-4.984 13.04 19.092s56.37-5.802 56.37-5.802z"/><path fill="#2e2e2e" fill-rule="evenodd" d="m1308.1 555.87-26.03-4.983-38.44 22.08-17.35-3.322 38.44-22.081-26.03-4.984 56.37-5.802 13.04 19.092z"/></g><g><path fill="url(#b)" d="m545.38 573.05v100.62h0.031c0.134 17.103 26.935 33.739 74.813 42.906 71.559 13.702 163.06 5.545 204.38-18.187 13.59-7.807 20.05-16.309 20.062-24.719v-100.38c-0.044 8.39-6.506 16.869-20.062 24.656-41.314 23.732-132.82 31.858-204.38 18.157-48.049-9.201-74.87-25.895-74.813-43.063h-0.031z"/><path fill="#f7f7f7" stroke="#000" stroke-linecap="butt" stroke-linejoin="miter" d="m824.6 598.32c-41.3 23.742-132.82 31.881-204.4 18.176s-96.085-44.061-54.736-67.794c41.3-23.742 132.82-31.881 204.4-18.176 71.576 13.705 96.085 44.061 54.736 67.794z"/><path fill="#2e2e2e" fill-rule="evenodd" d="m774.96 569.64-18.784 10.79 66.581 12.749-12.523 7.193-66.581-12.749-18.784 10.79-12.485-21.572 62.576-7.201z"/><path fill="#2e2e2e" fill-rule="evenodd" d="m665.2 548.62-18.784 10.79-66.581-12.749-12.523 7.194 66.581 12.748-18.784 10.79 62.576-7.2-12.485-21.573z"/><path fill="#2e2e2e" fill-rule="evenodd" d="m681.28 608-26.028-4.984 38.441-22.081-17.352-3.322-38.441 22.081-26.028-4.984 13.036 19.092s56.372-5.802 56.372-5.802z"/><path fill="#2e2e2e" fill-rule="evenodd" d="m778.2 552.33-26.028-4.984-38.439 22.081-17.352-3.323 38.439-22.08-26.027-4.984 56.373-5.802 13.034 19.092z"/></g><g><path fill="url(#a)" d="m741.7 142.38v100.62h0.031c0.134 17.103 26.935 33.739 74.813 42.906 71.559 13.702 163.06 5.545 204.38-18.187 13.59-7.807 20.05-16.309 20.06-24.719v-100.38c-0.04 8.39-6.5 16.869-20.06 24.656-41.315 23.732-132.82 31.858-204.38 18.157-48.049-9.201-74.871-25.895-74.813-43.063h-0.031z"/><path fill="#f7f7f7" stroke="#000" stroke-linecap="butt" stroke-linejoin="miter" d="m1020.9 167.66c-41.303 23.742-132.83 31.881-204.4 18.176s-96.086-44.061-54.736-67.794c41.299-23.742 132.82-31.881 204.4-18.176 71.58 13.705 96.09 44.061 54.74 67.794z"/><path fill="#2e2e2e" fill-rule="evenodd" d="m971.28 138.97-18.784 10.79 66.579 12.748-12.52 7.194-66.581-12.749-18.784 10.79-12.485-21.573s62.575-7.2 62.575-7.2z"/><path fill="#2e2e2e" fill-rule="evenodd" d="m861.52 117.95-18.784 10.79-66.581-12.749-12.522 7.194 66.581 12.748-18.784 10.79 62.576-7.2-12.486-21.573z"/><path fill="#2e2e2e" fill-rule="evenodd" d="m877.6 177.33-26.028-4.984 38.44-22.081-17.351-3.323-38.441 22.082-26.028-4.984 13.036 19.091s56.372-5.801 56.372-5.801z"/><path fill="#2e2e2e" fill-rule="evenodd" d="m974.52 121.66-26.028-4.984-38.439 22.081-17.352-3.323 38.439-22.08-26.028-4.984 56.373-5.802 13.035 19.092z"/></g><path fill="none" stroke="#fff" stroke-linecap="butt" stroke-linejoin="miter" d="m1221.8 527.46c-50.52 0.376-99.23 9.239-126.35 24.813-13.38 7.689-19.86 16.056-20.06 24.344h-0.03v100.62h0.03c0.13 17.103 26.94 33.738 74.81 42.906 71.56 13.701 163.06 5.544 204.38-18.188 13.59-7.806 20.05-16.308 20.06-24.718v-100.03c0.09-17.178-26.73-33.919-74.81-43.125-24.6-4.71-51.57-6.821-78.03-6.625z"/></g></g></svg>