<svg xmlns="http://www.w3.org/2000/svg" xmlns:xlink="http://www.w3.org/1999/xlink" id="Layer_1" data-name="Layer 1" viewBox="0 0 214.41 258.25"><defs><style>.cls-1{fill:url(#linear-gradient)}.cls-2{fill:url(#linear-gradient-2)}.cls-3{fill:url(#linear-gradient-3)}</style><linearGradient id="linear-gradient" x1=".87" x2="1.87" y1="282.72" y2="282.72" gradientTransform="matrix(214.41, 0, 0, -267.85, -151.38, 75869.99)" gradientUnits="userSpaceOnUse"><stop offset="0" stop-color="#da1e3e"/><stop offset="1" stop-color="#da1e3e"/></linearGradient><linearGradient id="linear-gradient-2" x1="-.06" x2=".94" y1="272.8" y2="272.8" gradientTransform="matrix(26.22, 0, 0, -19.31, 84.3, 5497.21)" gradientUnits="userSpaceOnUse"><stop offset="0" stop-color="#a11c32"/><stop offset="1" stop-color="#a11c32"/></linearGradient><linearGradient id="linear-gradient-3" x1="-.21" x2=".79" y1="272.08" y2="272.08" gradientTransform="matrix(22.84, 0, 0, -18.2, 87.54, 5086.74)" xlink:href="#linear-gradient-2"/></defs><title>logo</title><path id="Main" d="M194.37,202.89h-89V176h89c30.06,0,54.53-25.38,54.53-56.59V108H105.39v-2a25.44,25.44,0,0,1,25.42-25.39h63.56c30.06,0,54.53-25.38,54.53-56.63V12.61H91.61A57.15,57.15,0,0,0,34.53,69.69v61.16h48v23.48c-27.33,5.48-48,30.29-48,60v11.42H82.67a47.71,47.71,0,0,0,1.64,9.71,48.26,48.26,0,0,0,46.5,35.43H248.94V259.44c0-31.17-24.47-56.55-54.57-56.55Zm-111.81,0H59a37.8,37.8,0,0,1,23.56-25Zm141.64-72c-4.41,13-16.09,22.33-29.83,22.33h-89V130.85ZM82.56,106v2H57.36V69.69A34.28,34.28,0,0,1,91.61,35.44H224.2c-4.41,13.05-16.09,22.38-29.83,22.38H130.81A48.19,48.19,0,0,0,82.56,106Zm48.25,142a25.38,25.38,0,0,1-21.92-12.6,24.58,24.58,0,0,1-3.31-9.71h88.79c13.74,0,25.46,9.33,29.87,22.31H130.81" class="cls-1" transform="translate(-34.53 -12.61)"/><path id="Shadow2" d="M108.92,235.43H84.34a47.71,47.71,0,0,1-1.64-9.71h22.91a24.58,24.58,0,0,0,3.31,9.71" class="cls-2" transform="translate(-34.53 -12.61)"/><path id="Shadow1" d="M82.7,139.35h22.84v-8.6H82.7Z" class="cls-3" transform="translate(-34.53 -12.61)"/></svg>