<svg xmlns="http://www.w3.org/2000/svg" viewBox="0 0 677 104.5"><defs><style>.cls-1,.cls-2{fill:#f15a24;}.cls-1,.cls-3,.cls-4,.cls-6{opacity:0.2;}.cls-4,.cls-5{fill:#0071bc;}.cls-6,.cls-7{fill:#fbb03b;}.cls-8{fill:none;stroke:#000;stroke-miterlimit:10;stroke-width:3px;}.cls-9{font-size:35.28px;}.cls-10,.cls-11,.cls-9{fill:#fff;font-family:'Lato', sans-serif;;}.cls-10{font-size:19.14px;}.cls-11{font-size:13.09px;}.cls-12{letter-spacing:0.01em;}.cls-13{letter-spacing:0em;}</style></defs><title>Asset 1</title><g id="Layer_2" data-name="Layer 2"><g id="Layer_1-2" data-name="Layer 1"><rect class="cls-1" y="10.5" width="94" height="94" rx="12" ry="12"/><rect class="cls-2" x="9.5" width="94" height="94" rx="12" ry="12"/><path class="cls-3" d="M273.17,10.5a12,12,0,0,1,12,12v70a12,12,0,0,1-12,12h-70a12,12,0,0,1-12-12v-70a12,12,0,0,1,12-12"/><rect x="200.67" width="94" height="94" rx="12" ry="12"/><path class="cls-4" d="M464.33,10.5a12,12,0,0,1,12,12v70a12,12,0,0,1-12,12h-70a12,12,0,0,1-12-12v-70a12,12,0,0,1,12-12"/><rect class="cls-5" x="391.83" width="94" height="94" rx="12" ry="12"/><path class="cls-6" d="M655.5,10.5a12,12,0,0,1,12,12v70a12,12,0,0,1-12,12h-70a12,12,0,0,1-12-12v-70a12,12,0,0,1,12-12"/><rect class="cls-7" x="583" width="94" height="94" rx="12" ry="12"/><line class="cls-8" x1="104" y1="52.25" x2="182.89" y2="52.25"/><path d="M201,52.25c-8.52,3.16-19.09,8.55-25.64,14.27l5.16-14.27L175.36,38C181.91,43.7,192.48,49.09,201,52.25Z"/><line class="cls-8" x1="294.5" y1="52.25" x2="373.39" y2="52.25"/><path d="M391.5,52.25c-8.52,3.16-19.09,8.55-25.64,14.27L371,52.25,365.86,38C372.41,43.7,383,49.09,391.5,52.25Z"/><line class="cls-8" x1="503.61" y1="52.25" x2="582.5" y2="52.25"/><path d="M485.5,52.25c8.52,3.16,19.09,8.55,25.64,14.27L506,52.25,511.14,38C504.59,43.7,494,49.09,485.5,52.25Z"/><text class="cls-9" transform="translate(33.91 56.69)">ME</text><text class="cls-10" transform="translate(219.91 52.18)">GitHub</text><text class="cls-10" transform="translate(413.91 52.18)">Netlify</text><text class="cls-11" transform="translate(597.91 52.12)"><tspan class="cls-12">M</tspan><tspan x="10.62" y="0">y </tspan><tspan class="cls-13" x="19.56" y="0">D</tspan><tspan x="28.33" y="0">omain</tspan></text></g></g></svg>